<?xml version="1.0" encoding="iso-8859-1"?>
<!-- Generator: Adobe Illustrator 19.0.0, SVG Export Plug-In . SVG Version: 6.00 Build 0)  -->
<svg version="1.1" id="Layer_1" xmlns="http://www.w3.org/2000/svg" xmlnsXlink="http://www.w3.org/1999/xlink" x="0px" y="0px" width="50px" height="50px"
	viewBox="0 0 511.999 511.999" style="enable-background:new 0 0 511.999 511.999;" xmlSpace="preserve">
<g>
	<g>
		<path fill="#FFFFFF" d="M499.341,273.19c-8.163-8.163-19.015-12.658-30.558-12.658c-0.001,0-0.001,0-0.001,0
			c-11.542,0-22.396,4.495-30.558,12.657l-43.697,43.698L93.694,16.054c-21.405-21.405-56.235-21.405-77.64,0
			c-21.404,21.405-21.404,56.235,0,77.64l300.833,300.833l-43.698,43.697c-16.849,16.851-16.849,44.268,0,61.118
			c8.162,8.162,19.016,12.657,30.559,12.657h165.03c0.003,0,0.007,0,0.01,0c11.54,0,22.39-4.495,30.552-12.657
			c8.164-8.164,12.659-19.018,12.658-30.56V303.749C511.998,292.206,507.503,281.352,499.341,273.19z M491.601,468.783
			c0,6.094-2.372,11.824-6.684,16.134c-4.309,4.311-10.036,6.684-16.13,6.684c-0.002,0-0.004,0-0.005,0H303.748
			c-6.095,0-11.826-2.373-16.135-6.684c-8.896-8.897-8.896-23.373,0-32.27l50.91-50.909c1.912-1.913,2.987-4.507,2.987-7.212
			s-1.075-5.299-2.987-7.212L30.479,79.27c-13.452-13.452-13.451-35.339,0-48.791c6.726-6.727,15.56-10.089,24.396-10.089
			c8.834,0,17.67,3.363,24.396,10.088l308.044,308.045c3.983,3.982,10.441,3.982,14.424,0l50.91-50.909
			c4.31-4.31,10.04-6.684,16.135-6.684s11.825,2.373,16.135,6.685c4.309,4.308,6.683,10.038,6.683,16.134V468.783z"/>
	</g>
</g>
<g>
	<g>
		<path d="M470.641,362.069c-5.633,0-10.199,4.567-10.199,10.199v2.851c0,5.632,4.566,10.199,10.199,10.199
			s10.199-4.566,10.199-10.199v-2.851C480.841,366.636,476.274,362.069,470.641,362.069z"/>
	</g>
</g>
<g>
	<g>
		<path d="M470.641,397.425c-5.633,0-10.199,4.567-10.199,10.199v59.497c0,5.632,4.566,10.199,10.199,10.199
			s10.199-4.566,10.199-10.198v-59.499C480.841,401.992,476.274,397.425,470.641,397.425z"/>
	</g>
</g>
<g>
</g>
<g>
</g>
<g>
</g>
<g>
</g>
<g>
</g>
<g>
</g>
<g>
</g>
<g>
</g>
<g>
</g>
<g>
</g>
<g>
</g>
<g>
</g>
<g>
</g>
<g>
</g>
<g>
</g>
</svg>
